/* XPM */
static char *c2231a2e12be4c6ff7c520aaa2377427FBTDzVgvFamhVdYw[] = {
/* columns rows colors chars-per-pixel */
"65 49 6 1 ",
"  c black",
". c #561D00",
"X c #005200",
"o c #6B6D00",
"O c #0D9300",
"+ c #BCBE00",
/* pixels */
"                   ..                              ..            ",
"                                                                 ",
"  XXXXXX  XXXXX   XXXXXX  XXXXX   XXXXXX  XXXXX   XXXXXX  XXXXX  ",
"XXXXXXXXXXXXXXXXXXXXXXXXXXXXXXXXXXXXXXXXXXXXXXXXXXXXXXXXXXXXXXXXX",
"XXXXXXXXXXXXXXXXXXXXXXXXXXXXXXXXXXXXXXXXXXXXXXXXXXXXXXXXXXXXXXXXX",
"XXXXOOXXXOXOOXXXXXXXOOXXXOXOOXXXXXXXOOXXXOXOOXXXXXXXOOXXXOXOOXXXX",
"XXOOXXOXOXOXXOXOXXOOXXOXOXOXXOXOXXOOXXOXOXOXXOXOXXOOXXOXOXOXXOXOX",
"OOXOOOXOOOXOOOOOOOXOOOXOOOXOOOOOOOXOOOXOOOXOOOOOOOXOOOXOOOXOOOOOO",
"XXOOOOOOXOOOOXOOXXOOOOOOXOOOOXOOXXOOOOOOXOOOOXOOXXOOOOOOXOOOOXOOX",
" XOOXXOXOOXOXOXO XOOXXOXOOXOXOXO XOOXXOXOOXOXOXO XOOXXOXOOXOXOXO ",
"XXO O XOX OX X XXXO O XOX OX X XXXO O XOX OX X XXXO O XOX OX X XX",
"OO X X O XX XOX OO X X O XX XOX OO X X O XX XOX OO X X O XX XOX O",
"O  OX X OX X OX O  OX X OX X OX O  OX X OX X OX O  OX X OX X OX O",
"  OXX OX XOX XOX  OXX OX XOX XOX  OXX OX XOX XOX  OXX OX XOX XOX ",
"  XO OOX OXXX OX  XO OOX OXXX OX  XO OOX OXXX OX  XO OOX OXXX OX ",
"   X XX XO OX X    X XX XO OX X    X XX XO OX X    X XX XO OX X  ",
"      X  X X          X  X X          X  X X          X  X X     ",
" .ooo..       ....  ......o.     .ooo..       ....  ......o.     ",
".o+o+o..    ....oo..   ....     .o+o+o..    ....oo..   ....     .",
"o+++o+o.    .ooo++o..    ...  .oo+++o+o.    .ooo++o..    ...  .oo",
"++o+.o...  .o++++++o...   .   .o++o+.o...  .o++++++o...   .   .o+",
"oo+oo....  .ooo++++ooo...     ..oo+oo....  .ooo++++ooo...     ..o",
".ooo.. .  ..oooooo++oo.....    ..ooo.. .  ..oooooo++oo.....    ..",
"..oo.      .ooooo+oo+oooo....  ...oo.      .ooooo+oo+oooo....  ..",
". .o..      oooooo++++ooooo...  . .o..      oooooo++++ooooo...  .",
" ... .    .. ooo+oooooo++oo...   ... .    .. ooo+oooooo++oo...   ",
" . ..  .  .oo.oo+oooooooo...  .  . ..  .  .oo.oo+oooooooo...  .  ",
"  .   .  .oo.+.+ooooooo++.  o..   .   .  .oo.+.+ooooooo++.  o..  ",
"  ..     ..  o++.oooooooo o..     ..     ..  o++.oooooooo o..    ",
"   ..   .  oo+o.+++o+ooooo....     ..   .  oo+o.+++o+ooooo....   ",
"         oo......o+oooo..o.....          oo......o+oooo..o.....  ",
"         ..ooo. ....o+....o..            ..ooo. ....o+....o..    ",
"     ...   ....o.....o......         ...   ....o.....o......     ",
".  ..oo..     .ooo.. ... .. .   .  ..oo..     .ooo.. ... .. .   .",
". .oo++o.    ....... ..  ..o   .. .oo++o.    ....... ..  ..o   ..",
"  .o++++o.    .. .. ..    .. ..   .o++++o.    .. .. ..    .. ..  ",
" .o++o++oo..    .  ...    .   .. .o++o++oo..    .  ...    .   .. ",
" oo+oo+o+o. o   ...   ..    ...  oo+oo+o+o. o   ...   ..    ...  ",
" .ooo+oo+o.o..    ..             .ooo+oo+o.o..    ..             ",
" ...o+oooo.....        .....     ...o+oooo.....        .....     ",
"  ...oooo+o.. .      .oo++oo....  ...oooo+o.. .      .oo++oo.... ",
".  .. ooooo.. ..   .oo+++++oo....  .. ooooo.. ..   .oo+++++oo....",
".. . ooooo.. .o.  .o++oo+++o.ooo.. . ooooo.. .o.  .o++oo+++o.ooo.",
"o.  o..o..   ..    .ooooo+ooo.o.o.  o..o..   ..    .ooooo+ooo.o.o",
"..  .. ..     .   .+..oo+o...o....  .. ..     .   .+..oo+o...o...",
"      ..          .o++o+o..... .      ..          .o++o+o..... . ",
" .         ..    .oooooo.......  .         ..    .oooooo.......  ",
".        ...     ..oo...o...  ...        ...     ..oo...o...  ...",
".  ..              .....o. ..   .  ..              .....o. ..   ."
};
